<svg width="24" height="16" viewBox="0 0 24 16" fill="none" xmlns="http://www.w3.org/2000/svg">
<path d="M17.0159 5.13807C17.3911 4.87772 17.3911 4.45561 17.0159 4.19526C16.6406 3.93491 16.0321 3.93491 15.6569 4.19526L6.72672 10.3905L2.60141 7.5286C2.22613 7.26825 1.61768 7.26825 1.2424 7.5286C0.867118 7.78894 0.867118 8.21106 1.2424 8.4714L6.04722 11.8047C6.4225 12.0651 7.03095 12.0651 7.40623 11.8047L17.0159 5.13807Z" fill="#67E7D9"/>
<path d="M21.8207 5.13807C22.196 4.87772 22.196 4.45561 21.8207 4.19526C21.4454 3.93491 20.837 3.93491 20.4617 4.19526L11.527 10.3937C11.1498 10.1862 10.6 10.2034 10.2514 10.4453C9.87615 10.7056 9.87615 11.1277 10.2514 11.3881L10.852 11.8047C11.2273 12.0651 11.8358 12.0651 12.211 11.8047L21.8207 5.13807Z" fill="#67E7D9"/>
<path d="M8.00683 7.94526L7.40623 7.5286C7.03095 7.26825 6.4225 7.26825 6.04722 7.5286C5.67194 7.78894 5.67194 8.21106 6.04722 8.4714L6.64782 8.88807C7.0231 9.14842 7.63155 9.14842 8.00683 8.88807C8.38211 8.62772 8.38211 8.20561 8.00683 7.94526Z" fill="#67E7D9"/>
</svg>
