<svg width="104" height="104" viewBox="0 0 104 104" fill="none" xmlns="http://www.w3.org/2000/svg">
<path d="M39 84.5C39 91.6825 31.72 97.5 22.75 97.5C13.78 97.5 6.5 91.6825 6.5 84.5C6.5 77.324 13.78 71.5 22.75 71.5C31.72 71.5 39 77.324 39 84.5ZM97.5 71.5C97.5 78.6825 90.22 84.5 81.25 84.5C72.28 84.5 65 78.6825 65 71.5C65 64.3175 72.28 58.5 81.25 58.5C90.22 58.5 97.5 64.3175 97.5 71.5Z" fill="#67E7D9"/>
<path fill-rule="evenodd" clip-rule="evenodd" d="M91 71.5V13H97.5V71.5H91ZM39 19.5V84.5H32.5V19.5H39Z" fill="#67E7D9"/>
<path d="M32.5 18.8825C32.5 17.2711 33.0985 15.7172 34.1794 14.5221C35.2604 13.3271 36.7467 12.5761 38.35 12.415L90.35 7.215C91.2539 7.12416 92.1667 7.22378 93.0297 7.50745C93.8927 7.79112 94.6867 8.25253 95.3604 8.86192C96.0341 9.47131 96.5725 10.2151 96.9411 11.0454C97.3096 11.8758 97.5 12.7741 97.5 13.6825V19.5L32.5 26V18.8825Z" fill="#67E7D9"/>
</svg>
