<svg width="26" height="21" viewBox="0 0 26 21" fill="none" xmlns="http://www.w3.org/2000/svg">
<g filter="url(#filter0_d_1_386)">
<g clip-path="url(#clip0_1_386)">
<mask id="mask0_1_386" style="mask-type:luminance" maskUnits="userSpaceOnUse" x="3" y="1" width="20" height="15">
<rect x="3" y="1" width="20" height="15" fill="white"/>
</mask>
<g mask="url(#mask0_1_386)">
<path fill-rule="evenodd" clip-rule="evenodd" d="M3 1H23V16H3V1Z" fill="#E31D1C"/>
<path fill-rule="evenodd" clip-rule="evenodd" d="M3 2.25V3.5H23V2.25H3ZM3 4.75V6H23V4.75H3ZM3 8.5V7.25H23V8.5H3ZM3 9.75V11H23V9.75H3ZM3 13.5V12.25H23V13.5H3ZM3 16V14.75H23V16H3Z" fill="#F7FCFF"/>
<rect x="3" y="1" width="11.25" height="8.75" fill="#2E42A5"/>
<path fill-rule="evenodd" clip-rule="evenodd" d="M4.30002 3.71718L4.96242 3.25577L5.47624 3.62569H5.18532L5.77365 4.14606L5.57494 4.87569H5.2637L4.96149 4.20557L4.70376 4.87569H3.93532L4.52365 5.39606L4.30002 6.21719L4.96242 5.75577L5.47624 6.12569H5.18532L5.77365 6.64606L5.57494 7.37569H5.2637L4.96149 6.70557L4.70376 7.37569H3.93532L4.52365 7.89606L4.30002 8.71719L4.96242 8.25577L5.60334 8.71719L5.40407 7.89606L5.91878 7.37569H5.68137L6.21242 7.00577L6.72624 7.37569H6.43532L7.02365 7.89606L6.80002 8.71719L7.46242 8.25577L8.10334 8.71719L7.90407 7.89606L8.41878 7.37569H8.18137L8.71242 7.00577L9.22624 7.37569H8.93532L9.52365 7.89606L9.30002 8.71719L9.96242 8.25577L10.6033 8.71719L10.4041 7.89606L10.9188 7.37569H10.6814L11.2124 7.00577L11.7262 7.37569H11.4353L12.0237 7.89606L11.8 8.71719L12.4624 8.25577L13.1033 8.71719L12.9041 7.89606L13.4188 7.37569H12.7637L12.4615 6.70557L12.2038 7.37569H11.8311L11.6541 6.64606L12.1688 6.12569H11.9314L12.4624 5.75577L13.1033 6.21719L12.9041 5.39606L13.4188 4.87569H12.7637L12.4615 4.20557L12.2038 4.87569H11.8311L11.6541 4.14606L12.1688 3.62569H11.9314L12.4624 3.25577L13.1033 3.71718L12.9041 2.89606L13.4188 2.37569H12.7637L12.4615 1.70557L12.2038 2.37569H11.4353L12.0237 2.89606L11.8249 3.62569H11.5137L11.2115 2.95557L10.9538 3.62569H10.5811L10.4041 2.89606L10.9188 2.37569H10.2637L9.96149 1.70557L9.70376 2.37569H8.93532L9.52365 2.89606L9.32494 3.62569H9.0137L8.71149 2.95557L8.45376 3.62569H8.08113L7.90407 2.89606L8.41878 2.37569H7.7637L7.46149 1.70557L7.20376 2.37569H6.43532L7.02365 2.89606L6.82494 3.62569H6.5137L6.21149 2.95557L5.95376 3.62569H5.58113L5.40407 2.89606L5.91878 2.37569H5.2637L4.96149 1.70557L4.70376 2.37569H3.93532L4.52365 2.89606L4.30002 3.71718ZM11.8249 6.12569L12.0237 5.39606L11.4353 4.87569H11.7262L11.2124 4.50577L10.6814 4.87569H10.9188L10.4041 5.39606L10.5811 6.12569H10.9538L11.2115 5.45557L11.5137 6.12569H11.8249ZM10.4762 6.12569L9.96242 5.75577L9.43137 6.12569H9.66878L9.15407 6.64606L9.33113 7.37569H9.70376L9.96149 6.70557L10.2637 7.37569H10.5749L10.7737 6.64606L10.1853 6.12569H10.4762ZM8.27365 6.64606L8.07494 7.37569H7.7637L7.46149 6.70557L7.20376 7.37569H6.83113L6.65407 6.64606L7.16878 6.12569H6.93137L7.46242 5.75577L7.97624 6.12569H7.68532L8.27365 6.64606ZM8.45376 6.12569H8.08113L7.90407 5.39606L8.41878 4.87569H8.18137L8.71242 4.50577L9.22624 4.87569H8.93532L9.52365 5.39606L9.32494 6.12569H9.0137L8.71149 5.45557L8.45376 6.12569ZM6.82494 6.12569L7.02365 5.39606L6.43532 4.87569H6.72624L6.21242 4.50577L5.68137 4.87569H5.91878L5.40407 5.39606L5.58113 6.12569H5.95376L6.21149 5.45557L6.5137 6.12569H6.82494ZM10.7737 4.14606L10.5749 4.87569H10.2637L9.96149 4.20557L9.70376 4.87569H9.33113L9.15407 4.14606L9.66878 3.62569H9.43137L9.96242 3.25577L10.4762 3.62569H10.1853L10.7737 4.14606ZM7.97624 3.62569L7.46242 3.25577L6.93137 3.62569H7.16878L6.65407 4.14606L6.83113 4.87569H7.20376L7.46149 4.20557L7.7637 4.87569H8.07494L8.27365 4.14606L7.68532 3.62569H7.97624Z" fill="#F7FCFF"/>
</g>
<rect x="3" y="1" width="20" height="15" fill="url(#paint0_linear_1_386)" style="mix-blend-mode:overlay"/>
</g>
<rect x="3.5" y="1.5" width="19" height="14" rx="1" stroke="black" stroke-opacity="0.1" style="mix-blend-mode:multiply"/>
</g>
<defs>
<filter id="filter0_d_1_386" x="0" y="0" width="26" height="21" filterUnits="userSpaceOnUse" color-interpolation-filters="sRGB">
<feFlood flood-opacity="0" result="BackgroundImageFix"/>
<feColorMatrix in="SourceAlpha" type="matrix" values="0 0 0 0 0 0 0 0 0 0 0 0 0 0 0 0 0 0 127 0" result="hardAlpha"/>
<feOffset dy="2"/>
<feGaussianBlur stdDeviation="1.5"/>
<feColorMatrix type="matrix" values="0 0 0 0 0 0 0 0 0 0 0 0 0 0 0 0 0 0 0.1 0"/>
<feBlend mode="normal" in2="BackgroundImageFix" result="effect1_dropShadow_1_386"/>
<feBlend mode="normal" in="SourceGraphic" in2="effect1_dropShadow_1_386" result="shape"/>
</filter>
<linearGradient id="paint0_linear_1_386" x1="13" y1="1" x2="13" y2="16" gradientUnits="userSpaceOnUse">
<stop stop-color="white" stop-opacity="0.7"/>
<stop offset="1" stop-opacity="0.3"/>
</linearGradient>
<clipPath id="clip0_1_386">
<rect x="3" y="1" width="20" height="15" rx="1.5" fill="white"/>
</clipPath>
</defs>
</svg>
